<svg width="273" height="44" viewBox="0 0 273 44" fill="none" xmlns="http://www.w3.org/2000/svg">
<g clip-path="url(#clip0_385_459)">
<path d="M10.18 24.04C6.89999 24.04 4.38999 23.06 2.62999 21.1C0.86999 19.14 -0.0100098 16.12 -0.0100098 12.04C-0.0100098 7.96 0.87999 4.93 2.63999 2.96C4.38999 0.99 6.90999 0 10.18 0H24V3.7H10.9C9.75999 3.7 8.79999 3.88 8.02999 4.23C7.25999 4.59 6.62999 5.11 6.13999 5.81C5.64999 6.51 5.30999 7.38 5.10999 8.41C4.90999 9.44 4.80999 10.65 4.80999 12.02C4.80999 14.75 5.24999 16.82 6.14999 18.22C7.03999 19.62 8.62999 20.32 10.9 20.32H24V24.02H10.18V24.04Z" fill="white"/>
<path d="M38.39 24.04C34.35 24.04 31.29 23.01 29.2 20.96C27.11 18.91 26.07 15.93 26.07 12.04C26.07 8.15 27.11 5.14 29.2 3.08C31.29 1.03 34.35 0 38.39 0H43.27C47.33 0 50.4 1.03 52.49 3.08C54.58 5.13 55.62 8.12 55.62 12.04C55.62 15.96 54.57 18.91 52.49 20.96C50.4 23.01 47.33 24.04 43.27 24.04H38.39ZM42.49 20.51C44.06 20.51 45.37 20.3 46.44 19.87C47.51 19.44 48.36 18.85 49 18.09C49.64 17.33 50.1 16.43 50.37 15.4C50.64 14.37 50.78 13.25 50.78 12.03C50.78 10.81 50.64 9.69 50.37 8.65C50.1 7.61 49.64 6.71 49 5.96C48.36 5.21 47.5 4.62 46.44 4.2C45.37 3.77 44.05 3.56 42.49 3.56H38.93C37.43 3.56 36.17 3.77 35.14 4.2C34.11 4.63 33.28 5.21 32.66 5.96C32.04 6.71 31.6 7.6 31.32 8.65C31.04 9.7 30.91 10.82 30.91 12.03C30.91 13.24 31.05 14.36 31.32 15.4C31.59 16.44 32.04 17.33 32.66 18.09C33.28 18.85 34.1 19.44 35.14 19.87C36.17 20.3 37.44 20.51 38.93 20.51H42.49Z" fill="white"/>
<path d="M79.13 24.04V7.55C79.13 6.39 78.73 5.46 77.92 4.75C77.11 4.05 76.01 3.7 74.61 3.7H62.97V24.03H58.2V0H74.97C77.82 0 80.01 0.62 81.56 1.85C83.1 3.08 83.87 4.88 83.87 7.23V24.04H79.13Z" fill="white"/>
<path d="M96.72 24.04V3.7H85.79V0H112.46V3.7H101.53V24.03H96.72V24.04Z" fill="white"/>
<path d="M114.6 24.04V0H119.37V24.04H114.6Z" fill="white"/>
<path d="M151.85 24.04V7.55C151.85 6.39 151.43 5.46 150.6 4.75C149.77 4.05 148.68 3.7 147.32 3.7H141.76V24.03H137.09V3.7H127.08V24.03H122.38V0H147.63C150.46 0 152.64 0.62 154.18 1.85C155.72 3.08 156.49 4.88 156.49 7.23V24.04H151.83H151.85Z" fill="white"/>
<path d="M168.12 24.04C166.43 24.04 165 23.9 163.83 23.61C162.65 23.33 161.7 22.89 160.96 22.31C160.22 21.73 159.69 20.99 159.36 20.1C159.03 19.21 158.86 18.16 158.86 16.95C158.86 15.74 159.03 14.67 159.36 13.74C159.69 12.81 160.23 12.05 160.96 11.44C161.7 10.83 162.65 10.38 163.83 10.07C165 9.76 166.43 9.61 168.12 9.61H179.44C179.37 7.69 178.88 6.22 177.96 5.21C177.05 4.2 175.5 3.7 173.31 3.7H159.46V0H173.95C177.27 0 179.82 0.85 181.59 2.55C183.36 4.25 184.24 6.89 184.24 10.47V24.04H168.11H168.12ZM179.44 13.14H168.12C167.31 13.14 166.62 13.19 166.05 13.28C165.48 13.38 165.02 13.55 164.66 13.81C164.3 14.07 164.04 14.43 163.88 14.9C163.72 15.37 163.63 15.95 163.63 16.66C163.63 18.06 163.97 19.02 164.66 19.54C165.35 20.06 166.5 20.32 168.11 20.32H179.43V13.13L179.44 13.14Z" fill="white"/>
<path d="M195.76 24.04V3.7H184.83V0H211.5V3.7H200.57V24.03H195.76V24.04Z" fill="white"/>
<path d="M213.63 24.04V0H218.4V24.04H213.63Z" fill="white"/>
<path d="M231.12 24.04C227.84 24.04 225.33 23.06 223.57 21.1C221.81 19.14 220.93 16.12 220.93 12.04C220.93 7.96 221.81 4.93 223.57 2.96C225.33 0.99 227.84 0 231.12 0H244.94V3.7H231.84C230.7 3.7 229.74 3.88 228.97 4.23C228.2 4.59 227.57 5.11 227.08 5.81C226.59 6.51 226.25 7.38 226.05 8.41C225.85 9.44 225.75 10.65 225.75 12.02C225.75 14.75 226.19 16.82 227.09 18.22C227.98 19.62 229.57 20.32 231.84 20.32H244.94V24.02H231.12V24.04Z" fill="white"/>
<path d="M256.12 24.04C254.43 24.04 253 23.9 251.83 23.61C250.65 23.33 249.7 22.89 248.96 22.31C248.22 21.73 247.69 20.99 247.36 20.1C247.03 19.21 246.86 18.16 246.86 16.95C246.86 15.74 247.03 14.67 247.36 13.74C247.69 12.81 248.23 12.05 248.96 11.44C249.7 10.83 250.65 10.38 251.83 10.07C253 9.76 254.43 9.61 256.12 9.61H267.44C267.37 7.69 266.88 6.22 265.96 5.21C265.05 4.2 263.5 3.7 261.31 3.7H247.46V0H261.95C265.27 0 267.82 0.85 269.59 2.55C271.36 4.25 272.24 6.89 272.24 10.47V24.04H256.11H256.12ZM267.44 13.14H256.12C255.31 13.14 254.62 13.19 254.05 13.28C253.48 13.38 253.02 13.55 252.66 13.81C252.3 14.07 252.04 14.43 251.88 14.9C251.72 15.37 251.63 15.95 251.63 16.66C251.63 18.06 251.97 19.02 252.66 19.54C253.35 20.06 254.5 20.32 256.11 20.32H267.43V13.13L267.44 13.14Z" fill="white"/>
<path d="M30.64 43.15C29.5 43.15 28.56 42.77 27.82 42.02C27.08 41.27 26.71 40.33 26.71 39.23C26.71 38.13 27.08 37.18 27.82 36.43C28.56 35.68 29.5 35.3 30.64 35.3C31.32 35.3 31.95 35.46 32.53 35.78C33.11 36.1 33.56 36.53 33.88 37.08L32.6 37.82C32.41 37.48 32.15 37.22 31.8 37.03C31.45 36.84 31.07 36.74 30.64 36.74C29.91 36.74 29.31 36.97 28.87 37.43C28.42 37.89 28.2 38.49 28.2 39.22C28.2 39.95 28.42 40.54 28.87 41C29.32 41.46 29.91 41.69 30.64 41.69C31.07 41.69 31.46 41.59 31.81 41.4C32.16 41.21 32.42 40.95 32.6 40.62L33.88 41.36C33.56 41.91 33.11 42.34 32.53 42.66C31.95 42.98 31.32 43.14 30.63 43.14L30.64 43.15Z" fill="white"/>
<path d="M42.7 42.01C41.94 42.77 41.01 43.15 39.92 43.15C38.83 43.15 37.9 42.77 37.14 42.01C36.38 41.25 36 40.32 36 39.22C36 38.12 36.38 37.19 37.14 36.43C37.9 35.67 38.82 35.29 39.92 35.29C41.02 35.29 41.94 35.67 42.7 36.43C43.46 37.19 43.84 38.12 43.84 39.22C43.84 40.32 43.46 41.25 42.7 42.01ZM38.18 41C38.65 41.46 39.23 41.7 39.92 41.7C40.61 41.7 41.19 41.47 41.66 41C42.13 40.54 42.36 39.94 42.36 39.23C42.36 38.52 42.13 37.92 41.66 37.45C41.19 36.98 40.61 36.75 39.92 36.75C39.23 36.75 38.65 36.98 38.18 37.45C37.71 37.92 37.48 38.51 37.48 39.23C37.48 39.95 37.71 40.54 38.18 41Z" fill="white"/>
<path d="M50.88 35.45H52.37V43H51.24L48 38.38V43H46.51V35.45H47.64L50.88 40.0499V35.45Z" fill="white"/>
<path d="M60.38 35.45V36.8699H58.34V43H56.85V36.8699H54.82V35.45H60.38Z" fill="white"/>
<path d="M67.24 43L66.76 41.6399H63.66L63.21 43H61.6L64.24 35.45H66.08L68.74 43H67.23H67.24ZM64.14 40.25H66.27L65.18 37.16L64.14 40.25Z" fill="white"/>
<path d="M74.11 35.45C75.15 35.45 76.01 35.81 76.7 36.54C77.39 37.27 77.74 38.1599 77.74 39.2299C77.74 40.3 77.39 41.1899 76.7 41.9199C76.01 42.6499 75.14 43.0099 74.11 43.0099H71.11V35.4599H74.11V35.45ZM74.11 41.58C74.76 41.58 75.3 41.36 75.71 40.93C76.12 40.49 76.33 39.9299 76.33 39.2299C76.33 38.5299 76.12 37.9699 75.71 37.5299C75.3 37.0999 74.77 36.88 74.11 36.88H72.6V41.58H74.11Z" fill="white"/>
<path d="M86.77 42.01C86.01 42.77 85.08 43.15 83.99 43.15C82.9 43.15 81.97 42.77 81.21 42.01C80.45 41.25 80.07 40.32 80.07 39.22C80.07 38.12 80.45 37.19 81.21 36.43C81.97 35.67 82.89 35.29 83.99 35.29C85.09 35.29 86.01 35.67 86.77 36.43C87.53 37.19 87.91 38.12 87.91 39.22C87.91 40.32 87.53 41.25 86.77 42.01ZM82.25 41C82.72 41.46 83.3 41.7 83.99 41.7C84.68 41.7 85.26 41.47 85.73 41C86.2 40.54 86.43 39.94 86.43 39.23C86.43 38.52 86.2 37.92 85.73 37.45C85.26 36.98 84.68 36.75 83.99 36.75C83.3 36.75 82.72 36.98 82.25 37.45C81.78 37.92 81.55 38.51 81.55 39.23C81.55 39.95 81.78 40.54 82.25 41Z" fill="white"/>
<path d="M94.72 43L93.19 40.38H92.06V43H90.57V35.45H93.59C94.29 35.45 94.88 35.69 95.37 36.18C95.86 36.67 96.1 37.26 96.1 37.95C96.1 38.42 95.97 38.85 95.7 39.25C95.43 39.65 95.08 39.95 94.64 40.15L96.31 43H94.7H94.72ZM92.07 36.84V39.07H93.6C93.88 39.07 94.12 38.96 94.32 38.74C94.52 38.52 94.62 38.26 94.62 37.95C94.62 37.64 94.52 37.38 94.32 37.16C94.12 36.94 93.88 36.84 93.6 36.84H92.07Z" fill="white"/>
<path d="M100.31 41.58H103.49V43H98.82V35.45H103.44V36.8699H100.31V38.4799H103.17V39.88H100.31V41.57V41.58Z" fill="white"/>
<path d="M108.74 43.1499C107.99 43.1499 107.36 42.9799 106.85 42.6499C106.34 42.3199 105.98 41.8599 105.77 41.2899L107.04 40.5499C107.33 41.3199 107.91 41.7099 108.78 41.7099C109.2 41.7099 109.5 41.6299 109.7 41.4799C109.89 41.3299 109.99 41.1399 109.99 40.9099C109.99 40.6399 109.87 40.4399 109.63 40.2899C109.39 40.1399 108.97 39.9799 108.36 39.8099C108.02 39.7099 107.74 39.6099 107.5 39.5099C107.26 39.4099 107.03 39.2699 106.8 39.1099C106.57 38.9499 106.39 38.7299 106.27 38.4699C106.15 38.2099 106.09 37.9099 106.09 37.5599C106.09 36.8799 106.33 36.3299 106.82 35.9299C107.31 35.5299 107.89 35.3199 108.57 35.3199C109.18 35.3199 109.72 35.4699 110.18 35.7699C110.64 36.0699 111 36.4799 111.26 37.0199L110.01 37.7399C109.71 37.0899 109.23 36.7699 108.56 36.7699C108.25 36.7699 108.01 36.8399 107.83 36.9799C107.65 37.1199 107.57 37.2999 107.57 37.5299C107.57 37.7699 107.67 37.9599 107.87 38.1099C108.07 38.2599 108.45 38.4199 109.01 38.5899C109.24 38.6599 109.41 38.7199 109.53 38.7599C109.65 38.7999 109.81 38.8599 110.02 38.9399C110.23 39.0199 110.38 39.0999 110.49 39.1699C110.6 39.2399 110.73 39.3399 110.87 39.4599C111.01 39.5799 111.12 39.7099 111.2 39.8399C111.27 39.9699 111.34 40.1299 111.39 40.3099C111.44 40.4899 111.47 40.6899 111.47 40.9099C111.47 41.6099 111.22 42.1599 110.71 42.5699C110.2 42.9799 109.54 43.1799 108.73 43.1799L108.74 43.1499Z" fill="white"/>
<path d="M124.36 35.45L121.77 40.06V43.0099H120.29V40.07L117.71 35.4599H119.39L121.03 38.5999L122.67 35.4599H124.35L124.36 35.45Z" fill="white"/>
<path d="M134.6 43.15C133.46 43.15 132.52 42.77 131.78 42.02C131.04 41.27 130.67 40.33 130.67 39.23C130.67 38.13 131.04 37.18 131.78 36.43C132.52 35.68 133.46 35.3 134.6 35.3C135.28 35.3 135.91 35.46 136.49 35.78C137.07 36.1 137.52 36.53 137.84 37.08L136.56 37.82C136.37 37.48 136.11 37.22 135.76 37.03C135.41 36.84 135.03 36.74 134.6 36.74C133.87 36.74 133.27 36.97 132.83 37.43C132.38 37.89 132.16 38.49 132.16 39.22C132.16 39.95 132.38 40.54 132.83 41C133.28 41.46 133.87 41.69 134.6 41.69C135.03 41.69 135.42 41.59 135.77 41.4C136.12 41.21 136.38 40.95 136.56 40.62L137.84 41.36C137.52 41.91 137.07 42.34 136.49 42.66C135.91 42.98 135.28 43.14 134.59 43.14L134.6 43.15Z" fill="white"/>
<path d="M146.66 42.01C145.9 42.77 144.97 43.15 143.88 43.15C142.79 43.15 141.86 42.77 141.1 42.01C140.34 41.25 139.96 40.32 139.96 39.22C139.96 38.12 140.34 37.19 141.1 36.43C141.86 35.67 142.78 35.29 143.88 35.29C144.98 35.29 145.9 35.67 146.66 36.43C147.42 37.19 147.8 38.12 147.8 39.22C147.8 40.32 147.42 41.25 146.66 42.01ZM142.14 41C142.61 41.46 143.19 41.7 143.88 41.7C144.57 41.7 145.15 41.47 145.62 41C146.09 40.54 146.32 39.94 146.32 39.23C146.32 38.52 146.09 37.92 145.62 37.45C145.15 36.98 144.57 36.75 143.88 36.75C143.19 36.75 142.61 36.98 142.14 37.45C141.67 37.92 141.44 38.51 141.44 39.23C141.44 39.95 141.67 40.54 142.14 41Z" fill="white"/>
<path d="M154.84 35.45H156.33V43H155.2L151.96 38.38V43H150.47V35.45H151.6L154.84 40.0499V35.45Z" fill="white"/>
<path d="M161.81 43.1499C161.06 43.1499 160.43 42.9799 159.92 42.6499C159.41 42.3199 159.05 41.8599 158.84 41.2899L160.11 40.5499C160.4 41.3199 160.98 41.7099 161.85 41.7099C162.27 41.7099 162.57 41.6299 162.77 41.4799C162.96 41.3299 163.06 41.1399 163.06 40.9099C163.06 40.6399 162.94 40.4399 162.7 40.2899C162.46 40.1399 162.04 39.9799 161.43 39.8099C161.09 39.7099 160.81 39.6099 160.57 39.5099C160.33 39.4099 160.1 39.2699 159.87 39.1099C159.64 38.9499 159.46 38.7299 159.34 38.4699C159.22 38.2099 159.16 37.9099 159.16 37.5599C159.16 36.8799 159.4 36.3299 159.89 35.9299C160.38 35.5299 160.96 35.3199 161.64 35.3199C162.25 35.3199 162.79 35.4699 163.25 35.7699C163.71 36.0699 164.07 36.4799 164.33 37.0199L163.08 37.7399C162.78 37.0899 162.3 36.7699 161.63 36.7699C161.32 36.7699 161.08 36.8399 160.9 36.9799C160.72 37.1199 160.64 37.2999 160.64 37.5299C160.64 37.7699 160.74 37.9599 160.94 38.1099C161.14 38.2599 161.52 38.4199 162.08 38.5899C162.31 38.6599 162.48 38.7199 162.6 38.7599C162.72 38.7999 162.88 38.8599 163.09 38.9399C163.3 39.0199 163.45 39.0999 163.56 39.1699C163.67 39.2399 163.8 39.3399 163.94 39.4599C164.08 39.5799 164.19 39.7099 164.27 39.8399C164.34 39.9699 164.41 40.1299 164.46 40.3099C164.51 40.4899 164.54 40.6899 164.54 40.9099C164.54 41.6099 164.29 42.1599 163.78 42.5699C163.27 42.9799 162.61 43.1799 161.8 43.1799L161.81 43.1499Z" fill="white"/>
<path d="M169.95 43.15C169.11 43.15 168.42 42.9099 167.88 42.4399C167.34 41.9699 167.07 41.3299 167.07 40.5299V35.45H168.55V40.41C168.55 40.81 168.66 41.1199 168.89 41.3499C169.12 41.5799 169.47 41.7 169.95 41.7C170.43 41.7 170.79 41.5799 171.01 41.3499C171.24 41.1199 171.35 40.81 171.35 40.41V35.45H172.84V40.5299C172.84 41.3299 172.57 41.9699 172.03 42.4399C171.49 42.9099 170.8 43.15 169.95 43.15Z" fill="white"/>
<path d="M177.29 41.58H180.17V43H175.8V35.45H177.29V41.58Z" fill="white"/>
<path d="M186.86 35.45V36.8699H184.82V43H183.33V36.8699H181.3V35.45H186.86Z" fill="white"/>
<path d="M195.23 42.01C194.47 42.77 193.54 43.15 192.45 43.15C191.36 43.15 190.43 42.77 189.67 42.01C188.91 41.25 188.53 40.32 188.53 39.22C188.53 38.12 188.91 37.19 189.67 36.43C190.43 35.67 191.35 35.29 192.45 35.29C193.55 35.29 194.47 35.67 195.23 36.43C195.99 37.19 196.37 38.12 196.37 39.22C196.37 40.32 195.99 41.25 195.23 42.01ZM190.71 41C191.18 41.46 191.76 41.7 192.45 41.7C193.14 41.7 193.72 41.47 194.19 41C194.66 40.54 194.89 39.94 194.89 39.23C194.89 38.52 194.66 37.92 194.19 37.45C193.72 36.98 193.14 36.75 192.45 36.75C191.76 36.75 191.18 36.98 190.71 37.45C190.24 37.92 190.01 38.51 190.01 39.23C190.01 39.95 190.24 40.54 190.71 41Z" fill="white"/>
<path d="M203.18 43L201.65 40.38H200.52V43H199.03V35.45H202.05C202.75 35.45 203.34 35.69 203.83 36.18C204.32 36.67 204.56 37.26 204.56 37.95C204.56 38.42 204.43 38.85 204.16 39.25C203.89 39.65 203.54 39.95 203.1 40.15L204.77 43H203.16H203.18ZM200.53 36.84V39.07H202.06C202.34 39.07 202.58 38.96 202.78 38.74C202.98 38.52 203.08 38.26 203.08 37.95C203.08 37.64 202.98 37.38 202.78 37.16C202.58 36.94 202.34 36.84 202.06 36.84H200.53Z" fill="white"/>
<path d="M208.77 41.58H211.95V43H207.28V35.45H211.9V36.8699H208.77V38.4799H211.63V39.88H208.77V41.57V41.58Z" fill="white"/>
<path d="M217.2 43.1499C216.45 43.1499 215.82 42.9799 215.31 42.6499C214.8 42.3199 214.44 41.8599 214.23 41.2899L215.5 40.5499C215.79 41.3199 216.37 41.7099 217.24 41.7099C217.66 41.7099 217.96 41.6299 218.16 41.4799C218.35 41.3299 218.45 41.1399 218.45 40.9099C218.45 40.6399 218.33 40.4399 218.09 40.2899C217.85 40.1399 217.43 39.9799 216.82 39.8099C216.48 39.7099 216.2 39.6099 215.96 39.5099C215.72 39.4099 215.49 39.2699 215.26 39.1099C215.03 38.9499 214.85 38.7299 214.73 38.4699C214.61 38.2099 214.55 37.9099 214.55 37.5599C214.55 36.8799 214.79 36.3299 215.28 35.9299C215.77 35.5299 216.35 35.3199 217.03 35.3199C217.64 35.3199 218.18 35.4699 218.64 35.7699C219.1 36.0699 219.46 36.4799 219.72 37.0199L218.47 37.7399C218.17 37.0899 217.69 36.7699 217.02 36.7699C216.71 36.7699 216.47 36.8399 216.29 36.9799C216.11 37.1199 216.03 37.2999 216.03 37.5299C216.03 37.7699 216.13 37.9599 216.33 38.1099C216.53 38.2599 216.91 38.4199 217.47 38.5899C217.7 38.6599 217.87 38.7199 217.99 38.7599C218.11 38.7999 218.27 38.8599 218.48 38.9399C218.69 39.0199 218.84 39.0999 218.95 39.1699C219.06 39.2399 219.19 39.3399 219.33 39.4599C219.47 39.5799 219.58 39.7099 219.66 39.8399C219.73 39.9699 219.8 40.1299 219.85 40.3099C219.9 40.4899 219.93 40.6899 219.93 40.9099C219.93 41.6099 219.68 42.1599 219.17 42.5699C218.66 42.9799 218 43.1799 217.19 43.1799L217.2 43.1499Z" fill="white"/>
<path d="M229.85 35.45C230.89 35.45 231.75 35.81 232.44 36.54C233.13 37.27 233.48 38.1599 233.48 39.2299C233.48 40.3 233.13 41.1899 232.44 41.9199C231.75 42.6499 230.88 43.0099 229.85 43.0099H226.85V35.4599H229.85V35.45ZM229.85 41.58C230.5 41.58 231.04 41.36 231.45 40.93C231.86 40.49 232.07 39.9299 232.07 39.2299C232.07 38.5299 231.86 37.9699 231.45 37.5299C231.04 37.0999 230.51 36.88 229.85 36.88H228.34V41.58H229.85Z" fill="white"/>
<path d="M237.65 41.58H240.83V43H236.16V35.45H240.78V36.8699H237.65V38.4799H240.51V39.88H237.65V41.57V41.58Z" fill="white"/>
<path d="M252.8 35.45V36.8699H250.76V43H249.27V36.8699H247.24V35.45H252.8Z" fill="white"/>
<path d="M255.25 35.45H256.74V43H255.25V35.45Z" fill="white"/>
</g>
<defs>
<clipPath id="clip0_385_459">
<rect width="272.25" height="43.15" fill="white"/>
</clipPath>
</defs>
</svg>
